<?xml version="1.0" encoding="utf-8"?>
<!-- Uploaded to: SVG Repo, www.svgrepo.com, Generator: SVG Repo Mixer Tools -->
<svg width="800px" height="800px" viewBox="0 -56 1136 1136" class="icon"  version="1.1" xmlns="http://www.w3.org/2000/svg"><path d="M120.910769 574.818462h127.803077l337.132308-327.68 336.147692 327.68h127.803077s22.252308-6.498462-7.483077-30.72C1012.775385 519.876923 622.670769 119.138462 622.670769 119.138462s-28.553846-41.156923-79.36 0C493.095385 160.295385 120.910769 554.535385 120.910769 554.535385s-18.904615 12.996923 0 20.283077z" fill="#FFA44C" /><path d="M1054.72 529.329231C1031.876923 510.621538 771.938462 244.775385 637.44 106.732308c-4.135385-5.316923-18.313846-20.873846-41.747692-24.221539C574.818462 79.36 553.353846 86.843077 531.692308 104.369231 482.067692 144.738462 148.283077 498.018462 108.307692 540.16c-5.316923 4.135385-16.344615 14.375385-14.76923 28.947692 0.787692 6.104615 4.332308 17.132308 20.48 23.236923l3.347692 1.181539h139.027692l329.452308-320.196923 328.270769 320.196923h138.24l2.56-0.787692c8.073846-2.363077 18.510769-9.649231 21.070769-22.055385 4.529231-20.086154-14.966154-36.233846-21.267692-41.353846zM146.116923 555.716923c60.849231-64.393846 365.489231-385.969231 409.6-421.809231 12.996923-10.436923 24.418462-15.163077 34.461539-13.784615 10.24 1.378462 16.738462 9.255385 17.32923 10.043077l1.969231 2.363077c38.793846 39.975385 371.593846 381.44 417.673846 423.384615h-97.28L586.043077 220.356923 241.230769 555.716923H146.116923z" fill="#493B4E" /><path d="M615.581538 358.990769c-33.870769-29.538462-55.926154 0-55.926153 0l-259.938462 261.12v290.264616H684.504615l-0.393846-19.101539h0.196923c0.196923 11.815385 0.393846 19.101538 0.393846 19.101539H872.369231V620.110769S649.452308 388.529231 615.581538 358.990769z m-126.818461 551.384616s-0.196923-7.089231-0.196923-19.101539h0.196923v19.101539z" fill="#FFA44C" /><path d="M891.470769 612.430769l-5.316923-5.513846c-9.058462-9.452308-223.901538-232.172308-257.969231-262.104615-15.36-13.390769-31.113846-19.298462-47.261538-17.526154-19.692308 1.969231-31.901538 14.966154-35.446154 19.101538l-264.861538 265.846154V929.476923h610.855384V612.430769z m-384 278.646154h-37.809231v0.196923h-150.843076V627.987692L573.046154 372.381538l1.575384-1.772307s4.332308-5.12 10.24-5.710769c5.12-0.590769 11.421538 2.363077 18.313847 8.467692 30.129231 26.387692 220.750769 223.704615 250.28923 254.424615v263.68h-149.464615v-0.196923h-196.529231z" fill="#493B4E" /></svg>