<?xml version="1.0" ?>
<!-- Uploaded to: SVG Repo, www.svgrepo.com, Generator: SVG Repo Mixer Tools -->
<svg width="800px" height="800px" viewBox="0 0 512 512" id="Layer_1" version="1.1" xml:space="preserve" xmlns="http://www.w3.org/2000/svg" xmlns:xlink="http://www.w3.org/1999/xlink">
<style type="text/css">
	.st0{fill:#D3D9D9;}
	.st1{fill:#333333;}
	.st2{fill:#E8EAEA;}
	.st3{fill:#A8B2B4;}
	.st4{fill:#D3F0FD;}
	.st5{fill:#7BDE9E;}
	.st6{fill:#A8B1B3;}
	.st7{fill:#7C8B8D;}
	.st8{fill:#FB8A8A;}
	.st9{fill:#FCB1B1;}
	.st10{fill:#F96363;}
</style>
<g>
<g>
<g>
<g>
<g>
<g>
<g>
<path class="st0" d="M409.6,71.8V33.4c0-16.5-13.4-29.9-29.9-29.9H130.4c-16.5,0-29.9,13.4-29.9,29.9v38.4H409.6z"/>
</g>
</g>
</g>
</g>
<g>
<path class="st1" d="M297.1,41.6h-84.2c-2.2,0-4-1.8-4-4s1.8-4,4-4h84.2c2.2,0,4,1.8,4,4S299.3,41.6,297.1,41.6z"/>
</g>
<g>
<path class="st1" d="M321.3,41.6h-6.2c-2.2,0-4-1.8-4-4s1.8-4,4-4h6.2c2.2,0,4,1.8,4,4S323.5,41.6,321.3,41.6z"/>
</g>
<g>
<path class="st0" d="M100.4,439.2v38.4c0,16.5,13.4,29.9,29.9,29.9l249.3,0c16.5,0,29.9-13.4,29.9-29.9v-38.4L100.4,439.2z"/>
</g>
<g>
<g>
<g>
<g>
<path class="st2" d="M160.6,507.5h-30.3c-16.5,0-29.9-13.4-29.9-29.9v-38.4h30.3v38.4C130.7,494.1,144.1,507.5,160.6,507.5z"/>
</g>
</g>
</g>
</g>
<g>
<g>
<g>
<g>
<path class="st3" d="M409.6,439.2v38.4c0,16.5-13.4,29.9-29.9,29.9h-30.3c16.5,0,30-13.4,30-29.9v-38.4H409.6z"/>
</g>
</g>
</g>
</g>
<g>
<g>
<g>
<g>
<path class="st2" d="M160.7,3.5c-16.5,0-29.9,13.4-29.9,29.9v38.4h-30.3V33.4c0-16.5,13.4-29.9,29.9-29.9H160.7z"/>
</g>
</g>
</g>
</g>
<g>
<g>
<g>
<g>
<path class="st3" d="M409.6,33.4v38.4h-30.3V33.4c0-16.5-13.4-29.9-29.9-29.9h30.3C396.2,3.5,409.6,16.9,409.6,33.4z"/>
</g>
</g>
</g>
</g>
<g>
<g>
<path class="st1" d="M278.2,473.4c0,12.8-10.4,23.2-23.2,23.2c-12.8,0-23.2-10.4-23.2-23.2c0-12.8,10.4-23.2,23.2-23.2       C267.8,450.2,278.2,460.5,278.2,473.4z"/>
</g>
</g>
<g>
<g>
<g>
<g>
<rect class="st4" height="367.5" width="309.1" x="100.4" y="74.9"/>
</g>
<g>
<rect class="st4" height="307.5" width="253.1" x="128.4" y="106.9"/>
</g>
</g>
</g>
</g>
</g>
<path class="st1" d="M413.6,33.4c0-18.7-15.2-33.9-33.9-33.9H130.4c-18.7,0-33.9,15.2-33.9,33.9l0,444.2    c0,18.7,15.2,33.9,33.9,33.9h249.3c18.7,0,33.9-15.2,33.9-33.9V33.4z M104.4,435.2V75.8h301.1v359.5H104.4z M130.4,7.5h249.3    c14.3,0,25.9,11.6,25.9,25.9v34.4H104.4V33.4C104.4,19.1,116.1,7.5,130.4,7.5z M379.6,503.5H130.3c-14.3,0-25.9-11.6-25.9-25.9    v-34.4h301.1v34.4C405.6,491.9,393.9,503.5,379.6,503.5z"/>
</g>
<g>
<path class="st5" d="M362.5,363.1v32c0,8.4-6.8,15.3-15.2,15.3H162.7c-8.4,0-15.3-6.8-15.3-15.3v-32c0-8.4,6.8-15.2,15.3-15.2    h184.6C355.7,347.9,362.5,354.7,362.5,363.1z"/>
<path class="st1" d="M347.3,414.4H162.7c-10.6,0-19.3-8.6-19.3-19.3v-32c0-10.6,8.6-19.2,19.3-19.2h184.6    c10.6,0,19.2,8.6,19.2,19.2v32C366.5,405.8,357.9,414.4,347.3,414.4z M162.7,351.9c-6.2,0-11.3,5-11.3,11.2v32    c0,6.2,5.1,11.3,11.3,11.3h184.6c6.2,0,11.2-5.1,11.2-11.3v-32c0-6.2-5-11.2-11.2-11.2H162.7z"/>
</g>
<g>
<g>
<g>
<g>
<path class="st6" d="M325.6,301.2c0,8.1-6.6,14.7-14.7,14.7c-8.1,0-14.7-6.6-14.7-14.7c0-8.1,6.6-14.7,14.7-14.7       C319,286.4,325.6,293,325.6,301.2z"/>
</g>
<g>
<path class="st6" d="M236.2,301.2c0,8.1-6.6,14.7-14.7,14.7c-8.1,0-14.7-6.6-14.7-14.7c0-8.1,6.6-14.7,14.7-14.7       C229.6,286.4,236.2,293,236.2,301.2z"/>
</g>
</g>
<g>
<g>
<path class="st7" d="M325.6,301.2c0,8.1-6.6,14.7-14.7,14.7c-6,0-11.2-3.6-13.5-8.7c1.8,0.8,3.9,1.3,6,1.3       c8.1,0,14.7-6.6,14.7-14.7c0-2.1-0.5-4.2-1.3-6C322,290,325.6,295.2,325.6,301.2z"/>
</g>
<g>
<path class="st7" d="M236.2,301.2c0,8.1-6.6,14.7-14.7,14.7c-6,0-11.2-3.6-13.5-8.7c1.8,0.8,3.9,1.3,6,1.3       c8.1,0,14.7-6.6,14.7-14.7c0-2.1-0.5-4.2-1.3-6C232.6,290,236.2,295.2,236.2,301.2z"/>
</g>
</g>
<g>
<path class="st8" d="M364.5,164l-19.2,81.3c-1,4-4.5,6.9-8.7,6.9H205.7c-4.7,0-9,1.9-12.1,5c-1.1,1.1-2,2.3-2.8,3.6l18-107.8      h147C361.6,153,365.8,158.4,364.5,164z"/>
</g>
<g>
<path class="st9" d="M229.8,153l-16.6,99.1h-7.6c-4.7,0-9,1.9-12.1,5c-1.1,1.1-2,2.3-2.8,3.6l18-107.8H229.8z"/>
</g>
<g>
<path class="st10" d="M364.5,164l-19.2,81.3c-1,4-4.5,6.9-8.7,6.9h-21c4.1,0,7.7-2.8,8.7-6.9l19.2-81.3c1.3-5.6-2.9-11-8.7-11      h21C361.6,153,365.8,158.4,364.5,164z"/>
</g>
<path class="st1" d="M364.5,164L364.5,164L364.5,164z"/>
<path class="st1" d="M366,153.9c-2.5-3.1-6.2-4.9-10.1-4.9H213.6l4-24.2c0.9-5.5-0.6-11-4.2-15.2c-3.6-4.2-8.8-6.6-14.3-6.6     h-26.8c-2.2,0-4,1.8-4,4s1.8,4,4,4h26.8c3.2,0,6.2,1.4,8.2,3.8s2.9,5.6,2.4,8.7l-22.8,136.3c-1.5,2.9-2.4,6.1-2.4,9.5     c0,11.7,9.5,21.1,21.1,21.1h0.5c-2.1,3-3.4,6.7-3.4,10.7c0,10.3,8.4,18.7,18.7,18.7s18.7-8.4,18.7-18.7c0-4-1.3-7.7-3.4-10.7     h58.8c-2.1,3-3.4,6.7-3.4,10.7c0,10.3,8.4,18.7,18.7,18.7s18.7-8.4,18.7-18.7s-8.4-18.7-18.7-18.7H205.7     c-7.2,0-13.1-5.9-13.1-13.1s5.9-13.1,13.1-13.1h130.9c6,0,11.2-4.1,12.6-9.9l19.2-81.3c0,0,0,0,0,0     C369.3,161,368.4,157,366,153.9z M310.9,290.4c5.9,0,10.7,4.8,10.7,10.7c0,5.9-4.8,10.7-10.7,10.7c-5.9,0-10.7-4.8-10.7-10.7     C300.1,295.2,305,290.4,310.9,290.4z M221.5,290.4c5.9,0,10.7,4.8,10.7,10.7c0,5.9-4.8,10.7-10.7,10.7c-5.9,0-10.7-4.8-10.7-10.7     C210.7,295.2,215.6,290.4,221.5,290.4z M360.6,163l-19.2,81.3c-0.5,2.2-2.5,3.8-4.8,3.8H205.7c-3.2,0-6.2,0.7-9,2l15.6-93.2     h143.6c1.5,0,2.9,0.7,3.8,1.9C360.6,160,361,161.6,360.6,163z"/>
</g>
<g>
<g>
<path class="st1" d="M166.8,255h-21.6c-2.2,0-4-1.8-4-4s1.8-4,4-4h21.6c2.2,0,4,1.8,4,4S169,255,166.8,255z"/>
</g>
<g>
<path class="st1" d="M173.7,238.4h-28.5c-2.2,0-4-1.8-4-4s1.8-4,4-4h28.5c2.2,0,4,1.8,4,4S175.9,238.4,173.7,238.4z"/>
</g>
<g>
<path class="st1" d="M180.6,221.7h-35.3c-2.2,0-4-1.8-4-4s1.8-4,4-4h35.3c2.2,0,4,1.8,4,4S182.8,221.7,180.6,221.7z"/>
</g>
<g>
<path class="st1" d="M187.4,205.1h-42.2c-2.2,0-4-1.8-4-4s1.8-4,4-4h42.2c2.2,0,4,1.8,4,4S189.6,205.1,187.4,205.1z"/>
</g>
</g>
</g>
</g>
</svg>